{"accessors" : [{"bufferView" : 0, "byteOffset" : 0, "componentType" : 5123, "count" : 2916, "type" : "SCALAR", "max" : [2429], "min" : [0]}, {"bufferView" : 1, "byteOffset" : 0, "componentType" : 5126, "count" : 2430, "type" : "VEC3", "max" : [100, 374.2669982910156, 10], "min" : [-100, 354.2669982910156, -10], "name" : "POSITION"}, {"bufferView" : 1, "byteOffset" : 12, "componentType" : 5126, "count" : 2430, "type" : "VEC3", "max" : [1.0000044107437134, 1.0000044107437134, 1.0000044107437134], "min" : [-1.0000044107437134, -1.0000044107437134, -1.0000044107437134], "name" : "NORMAL"}, {"bufferView" : 0, "byteOffset" : 5832, "componentType" : 5123, "count" : 2916, "type" : "SCALAR", "max" : [2429], "min" : [0]}, {"bufferView" : 2, "byteOffset" : 0, "componentType" : 5126, "count" : 2430, "type" : "VEC3", "max" : [100, 334.7460021972656, 10], "min" : [-100, 314.7460021972656, -10], "name" : "POSITION"}, {"bufferView" : 2, "byteOffset" : 12, "componentType" : 5126, "count" : 2430, "type" : "VEC3", "max" : [1.0000044107437134, 1.0000044107437134, 1.0000044107437134], "min" : [-1.0000044107437134, -1.0000044107437134, -1.0000044107437134], "name" : "NORMAL"}, {"bufferView" : 0, "byteOffset" : 11664, "componentType" : 5123, "count" : 2916, "type" : "SCALAR", "max" : [2429], "min" : [0]}, {"bufferView" : 3, "byteOffset" : 0, "componentType" : 5126, "count" : 2430, "type" : "VEC3", "max" : [15, 421.6719970703125, 15], "min" : [-15, 21.672000885009766, -15], "name" : "POSITION"}, {"bufferView" : 3, "byteOffset" : 12, "componentType" : 5126, "count" : 2430, "type" : "VEC3", "max" : [1.0000044107437134, 1.0000044107437134, 1.0000044107437134], "min" : [-1.0000044107437134, -1.0000044107437134, -1.0000044107437134], "name" : "NORMAL"}], "asset" : {"generator" : "Aspose.3D 22.1", "version" : "2.0"}, "buffers" : [{"uri" : "data:application/octet-stream;base64,", "byteLength" : 227464}], "bufferViews" : [{"buffer" : 0, "byteOffset" : 0, "byteLength" : 17496, "target" : 34963}, {"buffer" : 0, "byteOffset" : 17500, "byteLength" : 69984, "byteStride" : 24, "target" : 34962}, {"buffer" : 0, "byteOffset" : 87488, "byteLength" : 69984, "byteStride" : 24, "target" : 34962}, {"buffer" : 0, "byteOffset" : 157476, "byteLength" : 69984, "byteStride" : 24, "target" : 34962}], "meshes" : [{"primitives" : [{"attributes" : {"POSITION" : 1, "NORMAL" : 2}, "indices" : 0, "mode" : 4}], "name" : ""}, {"primitives" : [{"attributes" : {"POSITION" : 4, "NORMAL" : 5}, "indices" : 3, "mode" : 4}], "name" : ""}, {"primitives" : [{"attributes" : {"POSITION" : 7, "NORMAL" : 8}, "indices" : 6, "mode" : 4}], "name" : ""}], "nodes" : [{"mesh" : 0, "name" : "Box_2"}, {"mesh" : 1, "name" : "Box_3"}, {"mesh" : 2, "name" : "Box"}], "scene" : 0, "scenes" : [{"nodes" : [0, 1, 2]}]}